<svg id="visual" viewBox="0 0 960 540" width="960" height="540" xmlns="http://www.w3.org/2000/svg" xmlns:xlink="http://www.w3.org/1999/xlink" version="1.1">
<rect x="0" y="0" width="960" height="540" fill="#ffffff"></rect>
<defs>
<linearGradient id="grad1_0" x1="43.8%" y1="0%" x2="100%" y2="100%">
<stop offset="14.444444444444446%" stop-color="#eaefff" stop-opacity="1"></stop>
<stop offset="85.55555555555554%" stop-color="#eaefff" stop-opacity="1"></stop>
</linearGradient>
</defs>
<defs>
<linearGradient id="grad1_1" x1="43.8%" y1="0%" x2="100%" y2="100%">
<stop offset="14.444444444444446%" stop-color="#eaefff" stop-opacity="1"></stop>
<stop offset="85.55555555555554%" stop-color="#ffffff" stop-opacity="1"></stop>
</linearGradient>
</defs>
<defs>
<linearGradient id="grad2_0" x1="0%" y1="0%" x2="56.3%" y2="100%">
<stop offset="14.444444444444446%" stop-color="#eaefff" stop-opacity="1"></stop>
<stop offset="85.55555555555554%" stop-color="#eaefff" stop-opacity="1"></stop>
</linearGradient>
</defs>
<defs>
<linearGradient id="grad2_1" x1="0%" y1="0%" x2="56.3%" y2="100%">
<stop offset="14.444444444444446%" stop-color="#ffffff" stop-opacity="1"></stop>
<stop offset="85.55555555555554%" stop-color="#eaefff" stop-opacity="1"></stop>
</linearGradient>
</defs>
<g transform="translate(960, 0)">
<path d="M0 395C-45.7 407.7 -91.4 420.4 -133.5 410.9C-175.6 401.3 -214.2 369.4 -244.5 336.6C-274.8 303.7 -296.9 269.9 -326 236.9C-355.2 203.9 -391.5 171.6 -407.1 132.3C-422.6 92.9 -417.3 46.5 -412 0L0 0Z" fill="#f5f7ff">
</path>
<path d="M0 197.5C-22.8 203.9 -45.7 210.2 -66.7 205.4C-87.8 200.6 -107.1 184.7 -122.3 168.3C-137.4 151.9 -148.4 135 -163 118.4C-177.6 101.9 -195.8 85.8 -203.5 66.1C-211.3 46.5 -208.6 23.2 -206 0L0 0Z" fill="#eaefff">
</path></g>
<g transform="translate(0, 540)">
<path d="M0 -406C41.5 -398.2 82.9 -390.3 123 -378.5C163.1 -366.7 201.7 -350.9 240.4 -330.9C279.1 -310.9 317.7 -286.7 348.7 -253.3C379.6 -219.9 402.9 -177.3 410.9 -133.5C418.8 -89.7 411.4 -44.9 404 0L0 0Z" fill="#f5f7ff">
</path>
<path d="M0 -203C20.7 -199.1 41.5 -195.2 61.5 -189.3C81.5 -183.3 100.9 -175.4 120.2 -165.4C139.5 -155.5 158.9 -143.4 174.3 -126.7C189.8 -110 201.5 -88.6 205.4 -66.7C209.4 -44.9 205.7 -22.4 202 0L0 0Z" fill="#eaefff"></path></g></svg>