<svg id="visual" viewBox="0 0 960 540" width="960" height="540" xmlns="http://www.w3.org/2000/svg" xmlns:xlink="http://www.w3.org/1999/xlink" version="1.1"><rect x="0" y="0" width="960" height="540" fill="#ffffff"></rect><path d="M0 209L22.8 217.8C45.7 226.7 91.3 244.3 137 246.8C182.7 249.3 228.3 236.7 274 214.2C319.7 191.7 365.3 159.3 411.2 152C457 144.7 503 162.3 548.8 164.2C594.7 166 640.3 152 686 165.2C731.7 178.3 777.3 218.7 823 221.8C868.7 225 914.3 191 937.2 174L960 157L960 541L937.2 541C914.3 541 868.7 541 823 541C777.3 541 731.7 541 686 541C640.3 541 594.7 541 548.8 541C503 541 457 541 411.2 541C365.3 541 319.7 541 274 541C228.3 541 182.7 541 137 541C91.3 541 45.7 541 22.8 541L0 541Z" fill="#eaefff"></path><path d="M0 245L22.8 247C45.7 249 91.3 253 137 242C182.7 231 228.3 205 274 188.2C319.7 171.3 365.3 163.7 411.2 171C457 178.3 503 200.7 548.8 210.2C594.7 219.7 640.3 216.3 686 209.3C731.7 202.3 777.3 191.7 823 193.7C868.7 195.7 914.3 210.3 937.2 217.7L960 225L960 541L937.2 541C914.3 541 868.7 541 823 541C777.3 541 731.7 541 686 541C640.3 541 594.7 541 548.8 541C503 541 457 541 411.2 541C365.3 541 319.7 541 274 541C228.3 541 182.7 541 137 541C91.3 541 45.7 541 22.8 541L0 541Z" fill="#d8def3"></path><path d="M0 219L22.8 217.8C45.7 216.7 91.3 214.3 137 209.8C182.7 205.3 228.3 198.7 274 209.8C319.7 221 365.3 250 411.2 257.5C457 265 503 251 548.8 237.7C594.7 224.3 640.3 211.7 686 203.7C731.7 195.7 777.3 192.3 823 198.5C868.7 204.7 914.3 220.3 937.2 228.2L960 236L960 541L937.2 541C914.3 541 868.7 541 823 541C777.3 541 731.7 541 686 541C640.3 541 594.7 541 548.8 541C503 541 457 541 411.2 541C365.3 541 319.7 541 274 541C228.3 541 182.7 541 137 541C91.3 541 45.7 541 22.8 541L0 541Z" fill="#c6cde8"></path><path d="M0 282L22.8 285.7C45.7 289.3 91.3 296.7 137 294.2C182.7 291.7 228.3 279.3 274 282.3C319.7 285.3 365.3 303.7 411.2 301C457 298.3 503 274.7 548.8 266C594.7 257.3 640.3 263.7 686 276.2C731.7 288.7 777.3 307.3 823 298.3C868.7 289.3 914.3 252.7 937.2 234.3L960 216L960 541L937.2 541C914.3 541 868.7 541 823 541C777.3 541 731.7 541 686 541C640.3 541 594.7 541 548.8 541C503 541 457 541 411.2 541C365.3 541 319.7 541 274 541C228.3 541 182.7 541 137 541C91.3 541 45.7 541 22.8 541L0 541Z" fill="#b4bddc"></path><path d="M0 263L22.8 273.5C45.7 284 91.3 305 137 311.8C182.7 318.7 228.3 311.3 274 310C319.7 308.7 365.3 313.3 411.2 321.8C457 330.3 503 342.7 548.8 334.3C594.7 326 640.3 297 686 294.8C731.7 292.7 777.3 317.3 823 325C868.7 332.7 914.3 323.3 937.2 318.7L960 314L960 541L937.2 541C914.3 541 868.7 541 823 541C777.3 541 731.7 541 686 541C640.3 541 594.7 541 548.8 541C503 541 457 541 411.2 541C365.3 541 319.7 541 274 541C228.3 541 182.7 541 137 541C91.3 541 45.7 541 22.8 541L0 541Z" fill="#a3acd1"></path><path d="M0 331L22.8 338.3C45.7 345.7 91.3 360.3 137 359.8C182.7 359.3 228.3 343.7 274 331.5C319.7 319.3 365.3 310.7 411.2 310.2C457 309.7 503 317.3 548.8 326C594.7 334.7 640.3 344.3 686 355.7C731.7 367 777.3 380 823 377C868.7 374 914.3 355 937.2 345.5L960 336L960 541L937.2 541C914.3 541 868.7 541 823 541C777.3 541 731.7 541 686 541C640.3 541 594.7 541 548.8 541C503 541 457 541 411.2 541C365.3 541 319.7 541 274 541C228.3 541 182.7 541 137 541C91.3 541 45.7 541 22.8 541L0 541Z" fill="#929cc5"></path><path d="M0 432L22.8 426.2C45.7 420.3 91.3 408.7 137 404.2C182.7 399.7 228.3 402.3 274 394.5C319.7 386.7 365.3 368.3 411.2 367.8C457 367.3 503 384.7 548.8 390.5C594.7 396.3 640.3 390.7 686 385C731.7 379.3 777.3 373.7 823 370C868.7 366.3 914.3 364.7 937.2 363.8L960 363L960 541L937.2 541C914.3 541 868.7 541 823 541C777.3 541 731.7 541 686 541C640.3 541 594.7 541 548.8 541C503 541 457 541 411.2 541C365.3 541 319.7 541 274 541C228.3 541 182.7 541 137 541C91.3 541 45.7 541 22.8 541L0 541Z" fill="#818cba"></path><path d="M0 445L22.8 448.2C45.7 451.3 91.3 457.7 137 448.5C182.7 439.3 228.3 414.7 274 413.2C319.7 411.7 365.3 433.3 411.2 445C457 456.7 503 458.3 548.8 450C594.7 441.7 640.3 423.3 686 424.2C731.7 425 777.3 445 823 446.3C868.7 447.7 914.3 430.3 937.2 421.7L960 413L960 541L937.2 541C914.3 541 868.7 541 823 541C777.3 541 731.7 541 686 541C640.3 541 594.7 541 548.8 541C503 541 457 541 411.2 541C365.3 541 319.7 541 274 541C228.3 541 182.7 541 137 541C91.3 541 45.7 541 22.8 541L0 541Z" fill="#717daf"></path><path d="M0 464L22.8 466.2C45.7 468.3 91.3 472.7 137 474.2C182.7 475.7 228.3 474.3 274 474C319.7 473.7 365.3 474.3 411.2 466.7C457 459 503 443 548.8 445.7C594.7 448.3 640.3 469.7 686 472C731.7 474.3 777.3 457.7 823 452.7C868.7 447.7 914.3 454.3 937.2 457.7L960 461L960 541L937.2 541C914.3 541 868.7 541 823 541C777.3 541 731.7 541 686 541C640.3 541 594.7 541 548.8 541C503 541 457 541 411.2 541C365.3 541 319.7 541 274 541C228.3 541 182.7 541 137 541C91.3 541 45.7 541 22.8 541L0 541Z" fill="#606ea3"></path><path d="M0 474L22.8 475.7C45.7 477.3 91.3 480.7 137 483.2C182.7 485.7 228.3 487.3 274 488.8C319.7 490.3 365.3 491.7 411.2 495.7C457 499.7 503 506.3 548.8 507.8C594.7 509.3 640.3 505.7 686 500.8C731.7 496 777.3 490 823 485.3C868.7 480.7 914.3 477.3 937.2 475.7L960 474L960 541L937.2 541C914.3 541 868.7 541 823 541C777.3 541 731.7 541 686 541C640.3 541 594.7 541 548.8 541C503 541 457 541 411.2 541C365.3 541 319.7 541 274 541C228.3 541 182.7 541 137 541C91.3 541 45.7 541 22.8 541L0 541Z" fill="#505f98"></path></svg>