<svg id="visual" viewBox="0 0 900 600" width="900" height="600" xmlns="http://www.w3.org/2000/svg" xmlns:xlink="http://www.w3.org/1999/xlink" version="1.1"><path d="M0 281L15 288.5C30 296 60 311 90 308.5C120 306 150 286 180 275.3C210 264.7 240 263.3 270 268.8C300 274.3 330 286.7 360 286.3C390 286 420 273 450 275C480 277 510 294 540 297C570 300 600 289 630 278.7C660 268.3 690 258.7 720 254C750 249.3 780 249.7 810 260.8C840 272 870 294 885 305L900 316L900 601L885 601C870 601 840 601 810 601C780 601 750 601 720 601C690 601 660 601 630 601C600 601 570 601 540 601C510 601 480 601 450 601C420 601 390 601 360 601C330 601 300 601 270 601C240 601 210 601 180 601C150 601 120 601 90 601C60 601 30 601 15 601L0 601Z" fill="#eaefff" stroke-linecap="round" stroke-linejoin="miter"></path></svg>