<svg id="visual" viewBox="0 0 900 600" width="900" height="600" xmlns="http://www.w3.org/2000/svg" xmlns:xlink="http://www.w3.org/1999/xlink" version="1.1"><path d="M0 329L16.7 328.7C33.3 328.3 66.7 327.7 100 321.8C133.3 316 166.7 305 200 302.5C233.3 300 266.7 306 300 303C333.3 300 366.7 288 400 288.2C433.3 288.3 466.7 300.7 500 302.5C533.3 304.3 566.7 295.7 600 294.3C633.3 293 666.7 299 700 299C733.3 299 766.7 293 800 293.3C833.3 293.7 866.7 300.3 883.3 303.7L900 307L900 601L883.3 601C866.7 601 833.3 601 800 601C766.7 601 733.3 601 700 601C666.7 601 633.3 601 600 601C566.7 601 533.3 601 500 601C466.7 601 433.3 601 400 601C366.7 601 333.3 601 300 601C266.7 601 233.3 601 200 601C166.7 601 133.3 601 100 601C66.7 601 33.3 601 16.7 601L0 601Z" fill="#eaefff" stroke-linecap="round" stroke-linejoin="miter"></path></svg>